<svg xmlns="http://www.w3.org/2000/svg" width="120" height="76" viewBox="0 0 120 76"><g fill="none" fill-rule="evenodd"><path fill="#227FBB" d="M111.998561,0 L8.0014394,0 C3.58236644,0 0,3.58906554 0,8.00758637 L0,67.9924136 C0,72.4148815 3.59136164,76 8.0014394,76 L111.998561,76 C116.417634,76 120,72.4109345 120,67.9924136 L120,8.00758637 C120,3.58511853 116.408638,0 111.998561,0 Z"/><g transform="translate(8 6)"><path fill="#F2C500" d="M104.406698,31.6426702 C104.411632,49.0791252 90.4335001,63.2168492 73.1860499,63.2214812 C55.9382473,63.225757 41.9541235,49.0951592 41.9495417,31.6587042 L41.9495417,31.6426702 C41.9449599,14.2065715 55.923092,0.068134828 73.1698373,0.0635027797 C90.4176399,0.0588707314 104.402116,14.1901811 104.406698,31.6266361 L104.406698,31.6426702 C104.406698,31.6426702 104.406698,31.6369692 104.406698,31.6426702 L104.406698,31.6426702 L104.406698,31.6426702 Z"/><path fill="#E94B35" d="M31.0863549,0.071697942 C13.941115,0.181798167 0.0588489904,14.2835347 0.0588489904,31.6426702 C0.0588489904,49.0695048 14.0493168,63.2132861 31.2876033,63.2132861 C39.3780729,63.2132861 46.7527183,60.0962739 52.3020297,54.9874809 C52.3016773,54.9874809 52.3009724,54.9867683 52.2995626,54.9860557 L52.3062591,54.9860557 C53.4425551,53.9392128 54.5023696,52.8097056 55.476539,51.605373 L49.0785301,51.605373 C48.2241934,50.5620932 47.447748,49.4749871 46.7502512,48.3533188 L57.7847283,48.3533188 C58.4557914,47.267638 59.0634137,46.1402687 59.6026608,44.9726362 L44.9284417,44.9726362 C44.4283164,43.8887369 43.9940991,42.7802521 43.6233226,41.6557333 L60.9091897,41.6557333 C61.9510293,38.508791 62.5163577,35.1420045 62.5163577,31.6423138 C62.5163577,29.322014 62.2675286,27.0597928 61.7966566,24.8816612 L42.7066024,24.8816612 C42.9430958,23.7607055 43.2416202,22.6532897 43.5975938,21.5651146 L60.889805,21.5651146 C60.5031683,20.4071026 60.0541481,19.2786643 59.5434494,18.1847883 L44.9266794,18.1847883 C45.4539433,17.0460171 46.0513446,15.9382449 46.7185308,14.8685981 L57.7449015,14.8685981 C57.0111024,13.6867131 56.1990597,12.5575623 55.3211089,11.4879154 L49.1733389,11.4879154 C50.1238942,10.356983 51.1703156,9.29196822 52.3062591,8.29892833 C46.7565953,3.18942275 39.3798352,0.071697942 31.2876033,0.071697942 C31.2202856,0.071697942 31.1536727,0.0713416306 31.0863549,0.071697942 C31.0863549,0.071697942 31.1536727,0.0713416306 31.0863549,0.071697942 L31.0863549,0.071697942 L31.0863549,0.071697942 Z"/><path fill="#FFF" d="M42.5173372 39.6806992L42.9335796 36.823438C42.70625 36.823438 42.3717757 36.92178 42.0767758 36.92178 40.9193329 36.92178 40.7917463 36.2996602 40.8654082 35.8396622L41.8004557 30.009695 43.5595293 30.009695 43.9842305 26.8492128 42.3256049 26.8492128 42.6632512 24.8837991 39.3382462 24.8837991C39.2649367 24.9579119 37.375457 35.9376479 37.375457 37.2745283 37.375457 39.2538381 38.4747458 40.1353525 40.0248171 40.1211001 41.2386518 40.1107671 42.1839204 39.7712023 42.5173372 39.6806992 42.5173372 39.6806992 42.1839204 39.7712023 42.5173372 39.6806992L42.5173372 39.6806992 42.5173372 39.6806992zM43.5708077 34.2330541C43.5708077 38.9833978 46.6723599 40.1121923 49.314671 40.1121923 51.7536189 40.1121923 52.8268265 39.5609786 52.8268265 39.5609786L53.4125969 36.3189011C53.4125969 36.3189011 51.5573047 37.1451872 49.8817616 37.1451872 46.311452 37.1451872 46.9366968 34.4539672 46.9366968 34.4539672L53.6938513 34.4539672C53.6938513 34.4539672 54.1301833 32.2758355 54.1301833 31.3882638 54.1301833 29.1734321 53.0397057 26.4747295 49.3890377 26.4747295 46.0457054 26.4754421 43.5708077 30.117301 43.5708077 34.2330541 43.5708077 34.2330541 43.5708077 30.117301 43.5708077 34.2330541L43.5708077 34.2330541 43.5708077 34.2330541zM49.4017259 29.4852046C51.278165 29.4852046 50.93206 31.6170157 50.93206 31.7894705L47.2405079 31.7894705C47.2405079 31.56927 47.5894325 29.4852046 49.4017259 29.4852046 49.4017259 29.4852046 47.5894325 29.4852046 49.4017259 29.4852046L49.4017259 29.4852046 49.4017259 29.4852046zM70.4570364 39.6792739L71.0519705 36.0146111C71.0519705 36.0146111 69.4204835 36.8416099 68.3007527 36.8416099 65.9421632 36.8416099 64.9961897 35.0208586 64.9961897 33.064709 64.9961897 29.0964688 67.0255918 26.9133489 69.2847906 26.9133489 70.9790135 26.9133489 72.3387623 27.8750333 72.3387623 27.8750333L72.8815339 24.3144134C72.8815339 24.3144134 70.8651725 23.4895525 69.136762 23.4895525 65.2982386 23.4895525 61.5640402 26.8559827 61.5640402 33.1783723 61.5640402 37.3707323 63.5804016 40.1396283 67.5482738 40.1396283 68.6701194 40.1399846 70.4570364 39.6792739 70.4570364 39.6792739L70.4570364 39.6792739 70.4570364 39.6792739 70.4570364 39.6792739zM24.2298097 26.5271073C21.9498163 26.5271073 20.2020211 27.2678787 20.2020211 27.2678787L19.7195183 30.1636215C19.7195183 30.1636215 21.1620926 29.5710756 23.3426953 29.5710756 24.580849 29.5710756 25.4866433 29.7118186 25.4866433 30.7290877 25.4866433 31.3469317 25.3756218 31.574971 25.3756218 31.574971 25.3756218 31.574971 24.3989853 31.4923067 23.9467931 31.4923067 21.0711607 31.4923067 18.0503193 32.7329831 18.0503193 36.4735402 18.0503193 39.4209482 20.0321407 40.0972272 21.2604259 40.0972272 23.6063272 40.0972272 24.6175037 38.5583183 24.6714284 38.5536862L24.5618168 39.8381888 27.4896116 39.8381888 28.7957881 30.5808622C28.7957881 26.6535978 25.4069898 26.5271073 24.2298097 26.5271073L24.2298097 26.5271073 24.2298097 26.5271073 24.2298097 26.5271073zM24.9421094 34.0645188C25.0055502 34.629985 24.5914225 37.2805855 22.5895115 37.2805855 21.5568356 37.2805855 21.2882693 36.4831606 21.2882693 36.0114043 21.2882693 35.0914083 21.7827555 33.9868429 24.2192362 33.9868429 24.7859744 33.9875555 24.8465957 34.0488411 24.9421094 34.0645188 24.9421094 34.0645188 24.8465957 34.0488411 24.9421094 34.0645188L24.9421094 34.0645188 24.9421094 34.0645188zM31.9075613 40.0295281C32.6565157 40.0295281 36.9380677 40.2219362 36.9380677 35.7555727 36.9380677 31.5799593 32.9747773 32.4048203 32.9747773 30.7273062 32.9747773 29.8921122 33.6208165 29.6291544 34.8015211 29.6291544 35.2702784 29.6291544 37.0737606 29.7798741 37.0737606 29.7798741L37.493175 26.8118001C37.493175 26.8121564 36.3258635 26.5477733 34.4254579 26.5477733 31.9657155 26.5477733 29.4689659 27.5404569 29.4689659 30.9368173 29.4689659 34.7853368 33.6320949 34.3990952 33.6320949 36.0203121 33.6320949 37.1024298 32.4690128 37.1904388 31.5727347 37.1904388 30.0216061 37.1904388 28.6248502 36.6524085 28.619916 36.678063L28.176535 39.6162068C28.2568934 39.6411486 29.118279 40.0295281 31.9075613 40.0295281 31.9075613 40.0295281 29.118279 40.0295281 31.9075613 40.0295281L31.9075613 40.0295281 31.9075613 40.0295281zM97.9991729 23.8636795L97.281939 28.3628237C97.281939 28.3628237 96.0303922 26.6151162 94.0711275 26.6151162 91.0245573 26.6151162 88.4851614 30.3285937 88.4851614 34.5954228 88.4851614 37.34971 89.8396233 40.0484126 92.6084636 40.0484126 94.6001536 40.0484126 95.7043767 38.6445456 95.7043767 38.6445456L95.5581103 39.8435335 98.7921835 39.8435335 101.332284 23.8583348 97.9991729 23.8636795 97.9991729 23.8636795 97.9991729 23.8636795 97.9991729 23.8636795zM96.4550933 32.6360664C96.4550933 34.4115661 95.5856014 36.7831748 93.7828241 36.7831748 92.5862593 36.7831748 92.0255128 35.7676873 92.0255128 34.1739064 92.0255128 31.5678448 93.1833082 29.8482859 94.6442098 29.8482859 95.841127 29.8479296 96.4550933 30.6792041 96.4550933 32.6360664 96.4550933 32.6360664 96.4550933 30.6792041 96.4550933 32.6360664L96.4550933 32.6360664 96.4550933 32.6360664z"/><polygon fill="#FFF" points="6.226 39.857 8.25 27.789 8.548 39.857 10.839 39.857 15.112 27.789 13.219 39.857 16.623 39.857 19.244 23.851 13.981 23.851 10.702 33.672 10.532 23.851 5.68 23.851 3.02 39.857 6.226 39.857 6.226 39.857"/><path fill="#FFF" d="M57.4555408 39.879521C58.4233661 34.315362 58.6027627 29.7973334 60.9123618 30.6243322 61.3166209 28.470786 61.7067821 27.6377299 62.1480484 26.7262854 62.1480484 26.7262854 61.9411607 26.6824591 61.5069434 26.6824591 60.0178459 26.6824591 58.9146801 28.7390885 58.9146801 28.7390885L59.2110898 26.8502817 56.1151768 26.8502817 54.0410137 39.879521 57.4555408 39.879521 57.4555408 39.879521 57.4555408 39.879521 57.4555408 39.879521zM78.1292193 26.5271073C75.849226 26.5271073 74.1014308 27.2678787 74.1014308 27.2678787L73.6192804 30.1636215C73.6192804 30.1636215 75.0618546 29.5710756 77.2424574 29.5710756 78.4806111 29.5710756 79.3857005 29.7118186 79.3857005 30.7290877 79.3857005 31.3469317 79.2753839 31.574971 79.2753839 31.574971 79.2753839 31.574971 78.2987474 31.4923067 77.8462027 31.4923067 74.9709228 31.4923067 71.9500814 32.7329831 71.9500814 36.4735402 71.9500814 39.4209482 73.9315503 40.0972272 75.1598355 40.0972272 77.5057369 40.0972272 78.5169134 38.5583183 78.5704856 38.5536862L78.4615789 39.8381888 81.3893737 39.8381888 82.6951977 30.5808622C82.6955502 26.6535978 79.3063994 26.5271073 78.1292193 26.5271073L78.1292193 26.5271073 78.1292193 26.5271073 78.1292193 26.5271073zM78.8425764 34.0645188C78.9060172 34.629985 78.491537 37.2805855 76.4889211 37.2805855 75.4562452 37.2805855 75.1883839 36.4831606 75.1883839 36.0114043 75.1883839 35.0914083 75.68287 33.9868429 78.1189983 33.9868429 78.6857365 33.9875555 78.7460053 34.0488411 78.8425764 34.0645188 78.8425764 34.0645188 78.7460053 34.0488411 78.8425764 34.0645188L78.8425764 34.0645188 78.8425764 34.0645188zM85.3711677 39.879521C86.3393454 34.315362 86.518742 29.7973334 88.8276362 30.6243322 89.2326002 28.470786 89.6231139 27.6377299 90.0640277 26.7262854 90.0640277 26.7262854 89.8571401 26.6824591 89.4229228 26.6824591 87.9338252 26.6824591 86.8306595 28.7390885 86.8306595 28.7390885L87.1270692 26.8502817 84.0311561 26.8502817 81.956993 39.879521 85.3711677 39.879521 85.3711677 39.879521 85.3711677 39.879521 85.3711677 39.879521z"/></g></g></svg>